<svg width="1039" height="250" viewBox="0 0 1039 250" fill="none" xmlns="http://www.w3.org/2000/svg">
<path fill-rule="evenodd" clip-rule="evenodd" d="M30.6423 136.139C33.1137 144.295 39.652 151.467 52.7288 165.81L74.5678 189.764C89.0265 205.623 96.2558 213.553 104.764 216.619C112.245 219.315 120.381 219.468 127.955 217.056C134.944 214.83 141.208 209.372 151.348 199.218C148.852 199.122 146.366 198.66 143.971 197.832C137.989 195.764 132.854 190.335 122.583 179.475L106.711 162.694C94.0739 149.334 87.7556 142.654 85.3774 135.005C83.2845 128.274 83.2845 121.048 85.3774 114.317C87.7556 106.668 94.0739 99.9882 106.711 86.6279L122.583 69.8469C132.854 58.9877 137.989 53.5582 143.971 51.4902C146.09 50.7577 148.279 50.3114 150.484 50.152C140.848 40.5499 134.743 35.3393 127.955 33.1771C120.381 30.765 112.245 30.9183 104.764 33.614C96.2558 36.6801 89.0265 44.6097 74.5678 60.4687L52.7288 84.4229C39.652 98.7661 33.1137 105.938 30.6423 114.094C28.4662 121.275 28.4662 128.958 30.6423 136.139Z" fill="url(#paint0_linear_560_24)"/>
<path d="M110.432 156.918C100.033 145.683 94.8335 140.065 92.8675 133.68C91.1363 128.058 91.1363 122.045 92.8675 116.423C94.8335 110.038 100.033 104.42 110.432 93.1844L122.257 80.4084C134.216 67.4885 140.195 61.0285 147.196 58.6333C153.348 56.5287 160.025 56.5287 166.177 58.6333C173.179 61.0285 179.158 67.4885 191.116 80.4085L202.941 93.1845C213.34 104.42 218.54 110.038 220.506 116.423C222.237 122.045 222.237 128.058 220.506 133.68C218.54 140.065 213.34 145.683 202.941 156.918L191.116 169.694C179.158 182.614 173.179 189.074 166.177 191.469C160.025 193.574 153.348 193.574 147.196 191.469C140.195 189.074 134.216 182.614 122.257 169.694L110.432 156.918Z" fill="url(#paint1_linear_560_24)"/>
<path d="M358.4 34C370.88 34 381.8 36.6 391.42 41.28C400.78 45.96 408.32 52.72 413.52 61.56C418.72 70.4 421.32 80.54 421.32 91.98C421.32 103.68 418.72 113.82 413.52 122.66C408.32 131.5 400.78 138.26 391.42 142.94C381.8 147.62 370.88 149.96 358.4 149.96H316.54V216H286.64V34H358.4ZM316.54 123.96H355.8C366.46 123.96 375.04 121.1 381.28 115.38C387.52 109.66 390.9 101.86 390.9 91.98C390.9 82.1 387.78 74.3 381.54 68.58C375.3 62.86 366.72 60 356.06 60H316.54V123.96ZM516.076 34C528.556 34 539.736 36.6 549.356 41.28C558.716 45.96 566.256 52.72 571.456 61.56C576.656 70.4 579.516 80.54 579.516 91.98C579.516 104.2 576.136 114.86 569.896 123.96C563.396 133.32 554.816 139.82 544.156 143.46L582.636 216H549.356L514.776 149.96H474.216V216H444.316V34H516.076ZM474.216 123.96H513.736C524.396 123.96 532.976 121.1 539.216 115.38C545.456 109.66 548.836 101.86 548.836 91.98C548.836 82.36 545.456 74.56 539.216 68.84C532.976 63.12 524.396 60 513.736 60H474.216V123.96ZM606.816 34H636.716V216H606.816V34ZM692.658 156.72C693.438 167.64 697.858 176.22 705.658 182.72C713.458 189.22 723.858 192.34 736.598 192.34C747.518 192.34 756.618 190 763.378 185.32C770.138 180.64 773.778 173.88 773.778 165.3C773.778 159.32 771.698 154.64 768.058 151C764.418 147.36 759.218 144.76 752.978 142.68C746.478 140.86 737.378 138.78 725.938 136.7C713.978 134.62 703.838 132.02 695.518 128.64C687.198 125.26 680.178 120.06 674.978 113.04C669.778 106.28 667.178 97.18 667.178 85.74C667.178 75.34 669.778 66.24 675.238 57.92C680.698 49.86 688.238 43.62 698.118 38.94C707.998 34.52 719.178 32.18 731.918 32.18C744.918 32.18 756.358 34.78 766.758 39.46C776.898 44.4 784.958 51.16 790.938 59.48C796.658 68.06 800.038 77.68 800.558 88.6H771.178C770.138 79.24 765.978 71.7 758.958 65.98C751.678 60.26 742.838 57.4 731.918 57.4C721.258 57.4 712.678 59.74 706.438 64.42C700.198 69.1 697.078 75.34 697.078 83.66C697.078 89.64 698.898 94.32 702.538 97.7C706.178 101.34 711.378 103.94 717.618 105.5C723.858 107.32 732.698 109.14 744.398 111.22C756.098 113.3 766.238 116.16 774.818 119.54C783.138 123.18 790.158 128.12 795.618 134.88C800.818 141.64 803.678 150.74 803.678 161.66C803.678 172.58 800.818 182.2 795.098 190.52C789.378 199.1 781.318 205.86 771.178 210.54C760.778 215.22 749.338 217.56 736.338 217.56C721.778 217.56 709.298 214.96 698.378 209.76C687.458 204.56 678.878 197.54 672.638 188.18C666.398 178.82 663.278 168.16 663.278 156.2L692.658 156.72ZM829.999 34H868.739L926.979 177.26L984.179 34H1022.14V216H993.279V82.1L938.679 216H913.459L858.859 82.1V216H829.999V34Z" fill="url(#paint2_linear_560_24)"/>
<defs>
<linearGradient id="paint0_linear_560_24" x1="29.0103" y1="125.117" x2="151.348" y2="125.117" gradientUnits="userSpaceOnUse">
<stop stop-color="#2ED9FF"/>
<stop offset="1" stop-color="#526BF9"/>
</linearGradient>
<linearGradient id="paint1_linear_560_24" x1="74.8457" y1="125.051" x2="238.528" y2="125.051" gradientUnits="userSpaceOnUse">
<stop stop-color="#E8EAF2"/>
<stop offset="1" stop-color="#ABB3CE"/>
</linearGradient>
<linearGradient id="paint2_linear_560_24" x1="270" y1="34" x2="1042" y2="220" gradientUnits="userSpaceOnUse">
<stop stop-color="#414C71"/>
<stop offset="1" stop-color="#272D43"/>
</linearGradient>
</defs>
</svg>
